<svg xmlns="http://www.w3.org/2000/svg" viewBox="0 0 900 506" role="img" aria-labelledby="title desc">
  <title id="title">Graphman thumbnail</title>
  <desc id="desc">A bright classroom-style bar graph thumbnail.</desc>
  <defs>
    <linearGradient id="bg" x1="0" y1="0" x2="1" y2="1">
      <stop offset="0" stop-color="#ecfeff"/>
      <stop offset="0.55" stop-color="#f8fafc"/>
      <stop offset="1" stop-color="#fef3c7"/>
    </linearGradient>
    <linearGradient id="blue" x1="0" y1="1" x2="0" y2="0">
      <stop offset="0" stop-color="#2563eb"/>
      <stop offset="1" stop-color="#38bdf8"/>
    </linearGradient>
    <linearGradient id="green" x1="0" y1="1" x2="0" y2="0">
      <stop offset="0" stop-color="#16a34a"/>
      <stop offset="1" stop-color="#86efac"/>
    </linearGradient>
    <linearGradient id="orange" x1="0" y1="1" x2="0" y2="0">
      <stop offset="0" stop-color="#f97316"/>
      <stop offset="1" stop-color="#fde68a"/>
    </linearGradient>
  </defs>
  <rect width="900" height="506" rx="42" fill="url(#bg)"/>
  <circle cx="770" cy="84" r="90" fill="#dbeafe" opacity="0.9"/>
  <circle cx="113" cy="421" r="108" fill="#dcfce7" opacity="0.9"/>
  <rect x="123" y="72" width="654" height="362" rx="30" fill="#ffffff" stroke="#d9e2f1" stroke-width="5"/>
  <g stroke="#e2e8f0" stroke-width="3">
    <path d="M181 141h514"/>
    <path d="M181 194h514"/>
    <path d="M181 247h514"/>
    <path d="M181 300h514"/>
    <path d="M181 353h514"/>
  </g>
  <path d="M181 107v276h536" fill="none" stroke="#334155" stroke-width="8" stroke-linecap="round"/>
  <rect x="235" y="237" width="82" height="146" rx="14" fill="url(#blue)"/>
  <rect x="361" y="169" width="82" height="214" rx="14" fill="url(#green)"/>
  <rect x="487" y="202" width="82" height="181" rx="14" fill="url(#orange)"/>
  <rect x="613" y="125" width="82" height="258" rx="14" fill="#a78bfa"/>
  <g fill="#475569" font-family="Arial, sans-serif" font-size="30" font-weight="800" text-anchor="middle">
    <text x="276" y="424">A</text>
    <text x="402" y="424">B</text>
    <text x="528" y="424">C</text>
    <text x="654" y="424">D</text>
  </g>
  <text x="450" y="61" fill="#0f172a" font-family="Arial, sans-serif" font-size="42" font-weight="900" text-anchor="middle">GRAPHMAN</text>
  <path d="M724 126l35 35 72-78" fill="none" stroke="#22c55e" stroke-width="18" stroke-linecap="round" stroke-linejoin="round"/>
</svg>
